<?xml version="1.0" encoding="utf-8"?>
<!-- Generator: Adobe Illustrator 19.0.1, SVG Export Plug-In . SVG Version: 6.00 Build 0)  -->
<?xml-stylesheet type="text/css" href="global.css" ?>
<?xml-stylesheet type="text/css" href="animate.css" ?>


<svg version="1.1" id="Layer_1" xmlns="http://www.w3.org/2000/svg" xmlns:xlink="http://www.w3.org/1999/xlink" x="0px" y="0px"
viewBox="0 0 262.487 256.487" enable-background="new 0 0 262.487 256.487" xml:space="preserve">


<g>
<circle class="circle-bg" fill="#272626" cx="131.243" cy="125.839" r="117.331"/>
<path id="hammer_icon" fill="#A74D25"  d="M199.858,78.49c-3.386-1.96-9.98-0.689-16.363-4.382c-6.38-3.694-4.504-8.772-12.798-13.303
c-8.29-4.531-16.232-6.447-29.42-7.119c-13.189-0.667-38.73,14.022-38.73,14.022c-5.166,3.173-2.743,6.582,1.832,5.346
c2.858-0.772,17.238-4.49,17.238-4.49c13.655-3.35,17.095-1.093,20.857,2.829c3.879,4.046,1.726,14.265,1.726,14.265
s0.361,0.209,1.014,0.586l-17.5,28.485c-0.984-0.433-2.48-0.718-3.66,0.691c-1.925,2.303-11.352,15.164-15.234,20.16
c-3.883,4.996-13.186,24.487-13.186,24.487s0,0-3.11,6.397c-3.11,6.402-11.319,18.187-15.826,23.234
c-4.503,5.048-1.777,6.49,0.837,8.823c2.616,2.334,8.636,5.273,13.504,7.818c4.871,2.546,8.699,1.753,9.942-2.45
c1.242-4.198,10.635-21.451,12.53-24.73c1.899-3.274,15.764-23.81,18.667-28.824c2.906-5.02,8.651-19.737,10.192-23.078
c0.759-1.649-0.102-3.157-1.17-4.263l16.315-29.503c0.06,0.035,0.119,0.069,0.183,0.106c0.026-0.029,0.052-0.056,0.078-0.084
c0.095,0.055,0.189,0.109,0.284,0.164c4.732-5.194,9.1-6.723,12.744-6.686c3.943,0.228,6.964,2.294,8.597,3.238
c3.154,1.828,3.588,6.991,5.957,8.359c2.367,1.37,0,0,4.536,2.626c1.092,0.633,2.026,0.848,2.818,0.813
c2.931,0.359,4.368-2.64,4.368-2.64s5.695-9.836,7.556-13.043C206.492,83.133,203.248,80.453,199.858,78.49z"/>
</g>
</svg>

 
