<?xml version="1.0" encoding="utf-8"?>
<!-- Generator: Adobe Illustrator 19.0.1, SVG Export Plug-In . SVG Version: 6.00 Build 0)  -->
<svg version="1.1" id="Layer_1" xmlns="http://www.w3.org/2000/svg" xmlns:xlink="http://www.w3.org/1999/xlink" x="0px" y="0px"
	 viewBox="106 -103.5 262.5 256.5" style="enable-background:new 106 -103.5 262.5 256.5;" xml:space="preserve">
<style type="text/css">
	.st0{fill:#272626;}
	.st1{fill:#A74C24;}
</style>
<circle class="st0" cx="237.2" cy="22.4" r="117.3"/>
<g>
	<path class="st1" d="M190.4,76.5c0,0-0.1,2.9,2.7,2.9c3.5,0,32.4,0,32.4,0l0-26.6c0,0-0.5-4.4,3.8-4.4h13.5c5,0,4.7,4.4,4.7,4.4
		l-0.1,26.5c0,0,27.4,0,31.8,0c3.6,0,3.4-3.6,3.4-3.6v-49l-44.8-39.8l-47.5,39.8C190.4,26.7,190.4,76.5,190.4,76.5z"/>
	<path class="st1" d="M172.9,22.9c0,0,4,7.4,12.8,0l52.6-44.5l49.3,44.2c10.2,7.3,14,0,14,0l-63.3-57.3L172.9,22.9z"/>
	<polygon class="st1" points="286.4,-21.6 273.7,-21.6 273.8,-6.3 286.4,4.5 	"/>
</g>
</svg>
