<?xml version="1.0" encoding="utf-8" ?>
<!-- Generator: Adobe Illustrator 19.0.0, SVG Export Plug-In . SVG Version: 6.00 Build 0)  -->
<?xml-stylesheet type="text/css" href="global.css" ?>


<svg version="1.1" id="Layer_1" class="logo" xmlns="http://www.w3.org/2000/svg" xmlns:xlink="http://www.w3.org/1999/xlink" x="0px" y="0px" viewBox="0 0 400 200" enable-background="new 0 0 400 200" xml:space="preserve">


<g id="XMLID_43_">


<g id="XMLID_126_" class="blade_trans">


<path id="XMLID_127_" class="blades grow" fill="#272626" d="M139.225,37.481l-3.199,6.685l2.343,9.694l-2.214,1.246l-6.015,0.012l-2.582-3.632
l-1.74,7.203l4.299,8.992l-1.903,1.681l-5.877,1.262l-3.285-3.015l-0.201,7.404l6.077,7.902l-1.516,2.042l-5.489,2.456
l-3.84-2.267l1.344,7.287l7.588,6.465l-1.057,2.311l-4.858,3.545l-4.227-1.418l2.826,6.847l8.774,4.75l-0.559,2.476l-4.012,4.479
l-4.428-0.512l4.189,6.115l9.559,2.818l-0.019,2.538l-2.998,5.219l-4.437,0.417l5.365,5.11l9.936,0.77l0.507,2.491l-1.851,5.722
l-4.246,1.33l6.307,3.883l9.879-1.314l1.018,2.33l-0.617,5.984l-3.888,2.188l6.981,2.486l9.396-3.345l1.473,2.073l0.641,5.982
l-3.342,2.946l7.345,0.981l8.492-5.224l1.87,1.719l1.87,5.715l-2.654,3.579l7.388-0.569l7.225-6.875l2.185,1.297l3.017,5.201
l-1.85,4.051l7.105-2.092l5.638-8.222l2.405,0.806l4.031,4.464l-0.966,4.351l6.513-3.526l3.806-9.219l2.525,0.292l4.868,3.527
l-0.043,4.454l5.642-4.801l1.808-9.807l2.529-0.239l5.494,2.435l0.885,4.369l4.519-5.869l-0.273-9.967l2.42-0.763l5.886,1.238
l1.774,4.091l3.204-6.679l-2.343-9.695l2.214-1.249l6.006-0.01l2.587,3.629l1.745-7.201l-4.308-8.994l1.908-1.678l5.881-1.26
l3.275,3.015l0.21-7.409l-6.082-7.899l1.511-2.044l5.494-2.455l3.835,2.267l-1.339-7.285l-7.593-6.467l1.057-2.311l4.863-3.542
l4.222,1.418l-2.821-6.85l-8.77-4.742l0.555-2.482l4.012-4.48l4.433,0.514l-4.189-6.11l-9.568-2.822l0.029-2.54l2.993-5.212
l4.447-0.423l-5.37-5.109l-9.941-0.768l-0.507-2.494l1.846-5.722l4.255-1.332l-6.316-3.881l-9.879,1.312l-1.009-2.329l0.617-5.984
l3.883-2.188l-6.981-2.486l-9.396,3.34l-1.473-2.066l-0.641-5.984l3.342-2.948l-7.345-0.979l-8.492,5.22l-1.869-1.717
l-1.865-5.716l2.649-3.583l-7.388,0.571l-7.225,6.872l-2.185-1.288l-3.013-5.204l1.85-4.051l-7.11,2.092l-5.633,8.222l-2.41-0.806
l-4.026-4.464l0.961-4.347l-6.512,3.519l-3.806,9.218l-2.525-0.288l-4.872-3.526l0.048-4.459l-5.638,4.803l-1.808,9.807
l-2.525,0.244l-5.504-2.44l-0.88-4.369l-4.524,5.872l0.272,9.967l-2.424,0.763l-5.882-1.241L139.225,37.481z" />
</g>


<g id="XMLID_122_">
<path id="XMLID_123_" class="circle" fill="#FFFFFF" d="M200,167.219c-37.065,0-67.219-30.155-67.219-67.219
c0-37.065,30.155-67.219,67.219-67.219S267.219,62.935,267.219,100C267.219,137.064,237.065,167.219,200,167.219z M200,35.125
c-35.772,0-64.875,29.103-64.875,64.875s29.103,64.875,64.875,64.875s64.875-29.103,64.875-64.875S235.772,35.125,200,35.125z" />
</g>

<g id="XMLID_117_">
<rect id="XMLID_38_" x="74.025" y="67.665" fill="#272626" width="251.95" height="64.841" />
<path id="XMLID_118_" fill="#FFFFFF" d="M327.147,133.678H72.853V66.493h254.294V133.678z M75.197,131.334h249.605V68.837H75.197
V131.334z" />
</g>

<g id="XMLID_95_">
<g id="XMLID_113_">
<path id="XMLID_114_" fill="#A84C24" d="M82.754,124.666v-6.382h3.441V81.965h-3.441v-6.381h30.808l7.538,7.248v34.586
l-7.538,7.248H82.754z M108.072,118.284l3.605-3.308V85.353l-3.605-3.388H95.618v36.319H108.072z" />
</g>
<g id="XMLID_109_">
<path id="XMLID_110_" fill="#A84C24" d="M125.269,124.666v-6.382h3.441V81.965h-3.441v-6.381h30.808l7.538,7.248v11.345
l-5.162,4.963l5.162,4.963v14.181h3.441v6.382h-12.863v-18.908l-3.605-3.466h-12.454v15.993h3.441v6.382H125.269z
M150.587,95.989l3.605-3.388v-7.248l-3.605-3.388h-12.454v14.023H150.587z" />
</g>
<g id="XMLID_105_">
<path id="XMLID_106_" fill="#A84C24" d="M170.144,124.666v-6.382h2.458l12.618-36.319h-3.687v-6.381h24.17v6.381h-4.015
l12.536,36.319h2.54v6.382h-15.731v-6.382h3.195l-3.031-8.587h-15.649l-2.95,8.587h3.195v6.382H170.144z M199.64,105.206
l-6.227-18.041l-6.227,18.041H199.64z" />
</g>
<g id="XMLID_102_">
<path id="XMLID_103_" fill="#A84C24" d="M219.86,124.666v-6.382l25.236-36.319h-18.681v3.23h-6.555v-9.612h36.543v6.381
l-25.236,36.319h18.6v-3.23h6.636v9.612H219.86z" />
</g>
<g id="XMLID_99_">
<path id="XMLID_100_" fill="#A84C24" d="M259.491,124.666v-6.382h3.441V81.965h-3.441v-6.381h16.305v6.381h-3.441v36.319h3.441
v6.382H259.491z" />
</g>
<g id="XMLID_96_">
<path id="XMLID_97_" fill="#A84C24" d="M279.966,117.417V82.832l7.538-7.248h22.204l7.538,7.248v7.878h-9.505v-5.357
l-3.441-3.388h-11.389l-3.442,3.388v29.623l3.442,3.308H304.3l3.441-3.308v-5.042h9.505v7.484l-7.538,7.248h-22.204
L279.966,117.417z" />
</g>
</g>
<g id="XMLID_44_">
<g id="XMLID_67_">
<path id="XMLID_93_" fill="#FFFFFF" d="M162.027,53.248l0.905,1.007c-0.862,0.031-1.557,0.282-2.083,0.755
c-0.58,0.521-0.881,1.169-0.904,1.942c-0.027,0.773,0.228,1.46,0.767,2.059c0.532,0.592,1.181,0.912,1.946,0.96
c0.765,0.048,1.438-0.189,2.017-0.71c0.3-0.269,0.51-0.547,0.633-0.833c0.073-0.154,0.135-0.328,0.186-0.524
c0.051-0.195,0.093-0.414,0.127-0.656l0.925,1.029c-0.239,0.715-0.626,1.313-1.162,1.794c-0.806,0.725-1.747,1.062-2.824,1.012
c-1.078-0.057-1.977-0.487-2.697-1.289c-0.646-0.719-0.984-1.573-1.015-2.563c-0.035-1.215,0.411-2.24,1.34-3.074
C160.695,53.702,161.308,53.399,162.027,53.248z" />
<path id="XMLID_90_" fill="#FFFFFF" d="M165.633,54.599c-0.585-0.894-0.759-1.876-0.523-2.946c0.233-1.068,0.807-1.902,1.723-2.5
c0.905-0.592,1.892-0.775,2.962-0.552c1.073,0.222,1.906,0.787,2.5,1.695c0.597,0.913,0.777,1.901,0.54,2.963
c-0.238,1.067-0.82,1.904-1.746,2.51c-0.82,0.536-1.741,0.734-2.765,0.593C167.195,56.203,166.298,55.616,165.633,54.599z
M166.606,53.977c0.458,0.701,1.071,1.124,1.839,1.267c0.764,0.145,1.453,0.017,2.068-0.384c0.666-0.436,1.078-1.033,1.234-1.793
c0.153-0.765,0.011-1.482-0.426-2.15c-0.442-0.676-1.039-1.096-1.791-1.257c-0.751-0.166-1.458-0.032-2.121,0.401
c-0.661,0.432-1.068,1.027-1.222,1.785C166.029,52.598,166.169,53.308,166.606,53.977z" />
<path id="XMLID_88_" fill="#FFFFFF" d="M175.856,52.718l-3.228-7.432l7.38,3.105l-2.1-4.836l1.05-0.456l3.207,7.382l-7.375-3.092
l2.116,4.872L175.856,52.718z" />
<path id="XMLID_86_" fill="#FFFFFF" d="M186.358,42.095l-0.749,0.777c-0.247-0.244-0.459-0.39-0.635-0.437
c-0.185-0.058-0.403-0.052-0.652,0.017c-0.307,0.084-0.537,0.242-0.691,0.471c-0.155,0.226-0.197,0.469-0.126,0.728
c0.098,0.357,0.443,0.572,1.034,0.643l0.812,0.098c0.66,0.077,1.175,0.25,1.545,0.521c0.37,0.27,0.624,0.657,0.763,1.159
c0.185,0.673,0.114,1.291-0.213,1.854c-0.33,0.567-0.829,0.943-1.499,1.127c-0.635,0.175-1.211,0.131-1.728-0.133
c-0.512-0.265-0.912-0.725-1.201-1.379l1.05-0.555c0.169,0.415,0.339,0.688,0.51,0.818c0.314,0.253,0.69,0.32,1.125,0.199
c0.345-0.095,0.599-0.289,0.762-0.582c0.164-0.293,0.197-0.616,0.1-0.97c-0.039-0.142-0.094-0.267-0.167-0.374
c-0.072-0.108-0.164-0.199-0.275-0.276c-0.112-0.076-0.245-0.14-0.402-0.19c-0.156-0.05-0.337-0.09-0.542-0.118l-0.787-0.099
c-1.118-0.147-1.788-0.628-2.013-1.442c-0.151-0.549-0.068-1.066,0.251-1.551c0.317-0.488,0.789-0.818,1.414-0.991
C184.888,41.18,185.659,41.408,186.358,42.095z" />
<path id="XMLID_84_" fill="#FFFFFF" d="M191.102,41.175l1.029,6.429l-1.13,0.181l-1.029-6.429l-1.723,0.276l-0.17-1.062
l4.57-0.732l0.17,1.063L191.102,41.175z" />
<path id="XMLID_81_" fill="#FFFFFF" d="M197.581,43.843l2.508,3.111l-1.399,0.07l-2.32-2.993l-0.206,0.01l0.156,3.102
l-1.143,0.057l-0.381-7.577l1.34-0.067c1.001-0.05,1.733,0.101,2.197,0.455c0.512,0.394,0.785,0.935,0.82,1.622
c0.027,0.537-0.104,1.006-0.391,1.407C198.473,43.442,198.08,43.709,197.581,43.843z M196.115,43.046l0.363-0.018
c1.083-0.054,1.604-0.495,1.562-1.323c-0.039-0.775-0.585-1.137-1.638-1.084l-0.407,0.021L196.115,43.046z" />
<path id="XMLID_79_" fill="#FFFFFF" d="M203.042,39.492l-0.35,4.553c-0.05,0.65,0.019,1.133,0.209,1.449
c0.283,0.458,0.713,0.71,1.287,0.754c0.579,0.044,1.043-0.138,1.393-0.548c0.234-0.274,0.377-0.741,0.428-1.4l0.35-4.553
l1.142,0.088l-0.375,4.87c-0.061,0.797-0.36,1.434-0.896,1.912c-0.603,0.532-1.311,0.767-2.124,0.704
c-0.813-0.063-1.475-0.403-1.986-1.02c-0.457-0.554-0.654-1.23-0.593-2.027l0.374-4.87L203.042,39.492z" />
<path id="XMLID_77_" fill="#FFFFFF" d="M215.951,41.907l-0.292,1.322c-0.527-0.683-1.135-1.101-1.826-1.254
c-0.762-0.168-1.463-0.036-2.105,0.395c-0.645,0.428-1.054,1.035-1.228,1.822c-0.172,0.777-0.054,1.491,0.353,2.141
c0.406,0.65,0.99,1.059,1.751,1.228c0.394,0.087,0.742,0.097,1.046,0.029c0.168-0.03,0.346-0.081,0.535-0.153
s0.391-0.165,0.607-0.278l-0.298,1.351c-0.72,0.221-1.432,0.255-2.135,0.099c-1.059-0.234-1.881-0.803-2.466-1.707
c-0.581-0.91-0.755-1.891-0.522-2.944c0.208-0.943,0.706-1.716,1.493-2.317c0.968-0.735,2.061-0.969,3.28-0.699
C214.807,41.088,215.41,41.41,215.951,41.907z" />
<path id="XMLID_75_" fill="#FFFFFF" d="M220.373,44.095l-2.17,6.138l-1.079-0.382l2.17-6.138l-1.645-0.581l0.359-1.014
l4.364,1.543l-0.359,1.015L220.373,44.095z" />
<path id="XMLID_73_" fill="#FFFFFF" d="M225.258,44.941l-3.102,6.924l-1.044-0.468l3.101-6.924L225.258,44.941z" />
<path id="XMLID_70_" fill="#FFFFFF" d="M225.762,49.209c0.549-0.916,1.356-1.501,2.422-1.756
c1.063-0.257,2.063-0.104,3.002,0.459c0.927,0.556,1.523,1.364,1.789,2.424c0.269,1.062,0.124,2.059-0.433,2.989
c-0.561,0.936-1.371,1.529-2.431,1.78c-1.064,0.252-2.071,0.094-3.02-0.476c-0.84-0.503-1.42-1.246-1.74-2.229
C224.999,51.315,225.137,50.252,225.762,49.209z M226.746,49.813c-0.43,0.719-0.543,1.454-0.338,2.207
c0.203,0.751,0.619,1.315,1.249,1.693c0.683,0.409,1.4,0.519,2.152,0.328c0.755-0.196,1.338-0.636,1.748-1.321
c0.416-0.693,0.532-1.413,0.35-2.16c-0.178-0.748-0.607-1.325-1.287-1.733c-0.677-0.406-1.39-0.513-2.139-0.321
C227.734,48.693,227.156,49.128,226.746,49.813z" />
<path id="XMLID_68_" fill="#FFFFFF" d="M231.922,57.59l5.273-6.152l0.434,7.995l3.431-4.003l0.869,0.745l-5.238,6.111
l-0.444-7.984l-3.457,4.033L231.922,57.59z" />
</g>
<g id="XMLID_45_">
<path id="XMLID_65_" fill="#FFFFFF" d="M169.375,148.313c0.097-0.156,0.238-0.256,0.422-0.3c0.185-0.044,0.357-0.016,0.516,0.082
c0.159,0.098,0.26,0.24,0.303,0.425c0.043,0.185,0.016,0.357-0.082,0.515c-0.1,0.162-0.243,0.264-0.427,0.308
c-0.18,0.042-0.351,0.014-0.513-0.086c-0.164-0.102-0.268-0.243-0.31-0.423C169.242,148.653,169.272,148.48,169.375,148.313z" />
<path id="XMLID_63_" fill="#FFFFFF" d="M178.291,149.72l-1.076,0.088c-0.024-0.347-0.086-0.596-0.187-0.748
c-0.101-0.166-0.268-0.306-0.501-0.419c-0.286-0.14-0.562-0.175-0.829-0.104c-0.266,0.067-0.458,0.221-0.576,0.463
c-0.163,0.332-0.046,0.722,0.349,1.166l0.544,0.61c0.444,0.494,0.715,0.965,0.814,1.412c0.099,0.448,0.034,0.906-0.195,1.374
c-0.307,0.628-0.769,1.044-1.387,1.249c-0.622,0.207-1.245,0.158-1.87-0.146c-0.591-0.289-0.994-0.703-1.208-1.244
c-0.208-0.537-0.204-1.146,0.013-1.828l1.154,0.279c-0.148,0.424-0.201,0.741-0.158,0.951c0.068,0.398,0.306,0.696,0.712,0.894
c0.32,0.157,0.64,0.179,0.956,0.068c0.317-0.111,0.556-0.331,0.717-0.661c0.065-0.132,0.105-0.263,0.122-0.391
c0.017-0.128,0.009-0.258-0.023-0.389c-0.033-0.131-0.092-0.267-0.176-0.408c-0.084-0.141-0.193-0.29-0.328-0.447l-0.525-0.595
c-0.741-0.85-0.925-1.654-0.555-2.413c0.25-0.512,0.655-0.844,1.214-0.997c0.561-0.156,1.133-0.092,1.716,0.193
C177.794,148.062,178.221,148.743,178.291,149.72z" />
<path id="XMLID_61_" fill="#FFFFFF" d="M184.927,152.065l-2.884-0.966l-0.579,1.728l2.8,0.938l-0.342,1.02l-2.8-0.938
l-0.805,2.404l2.884,0.966l-0.342,1.02l-3.969-1.33l2.41-7.194l3.969,1.33L184.927,152.065z" />
<path id="XMLID_58_" fill="#FFFFFF" d="M189.533,156.469l1.695,3.619l-1.375-0.264l-1.541-3.459l-0.203-0.039l-0.587,3.049
l-1.124-0.216l1.434-7.45l1.317,0.254c0.984,0.189,1.66,0.512,2.026,0.965c0.403,0.505,0.54,1.095,0.41,1.77
c-0.102,0.528-0.34,0.952-0.715,1.273C190.494,156.292,190.048,156.458,189.533,156.469z M188.298,155.346l0.357,0.069
c1.064,0.205,1.675-0.1,1.832-0.913c0.146-0.762-0.298-1.243-1.333-1.442l-0.401-0.077L188.298,155.346z" />
<path id="XMLID_56_" fill="#FFFFFF" d="M195.035,152.879l1.816,5.361l2.403-5.137l1.251,0.066l-3.833,7.965l-2.89-8.321
L195.035,152.879z" />
<path id="XMLID_54_" fill="#FFFFFF" d="M203.617,152.948l0.429,7.574l-1.143,0.065l-0.429-7.574L203.617,152.948z" />
<path id="XMLID_52_" fill="#FFFFFF" d="M212.061,152.192l0.229,1.334c-0.746-0.433-1.467-0.591-2.165-0.47
c-0.769,0.132-1.368,0.519-1.8,1.161c-0.435,0.64-0.584,1.357-0.448,2.151c0.135,0.785,0.513,1.401,1.135,1.849
c0.622,0.448,1.317,0.606,2.085,0.474c0.397-0.068,0.723-0.191,0.979-0.368c0.144-0.091,0.29-0.205,0.437-0.344
c0.148-0.138,0.3-0.301,0.457-0.488l0.234,1.363c-0.583,0.478-1.229,0.777-1.939,0.899c-1.068,0.184-2.045-0.033-2.928-0.648
c-0.881-0.623-1.413-1.466-1.596-2.528c-0.164-0.952,0.005-1.856,0.507-2.71c0.617-1.047,1.542-1.676,2.772-1.887
C210.693,151.866,211.373,151.936,212.061,152.192z" />
<path id="XMLID_50_" fill="#FFFFFF" d="M218.894,150.805l-2.892,0.94l0.564,1.733l2.808-0.913l0.333,1.023l-2.808,0.913
l0.784,2.411l2.892-0.94l0.333,1.023l-3.981,1.295l-2.346-7.215l3.981-1.295L218.894,150.805z" />
<path id="XMLID_48_" fill="#FFFFFF" d="M225.191,148.047l-0.604,0.894c-0.286-0.198-0.52-0.305-0.701-0.321
c-0.193-0.025-0.406,0.018-0.64,0.129c-0.287,0.136-0.487,0.33-0.6,0.583c-0.114,0.25-0.113,0.496,0.002,0.739
c0.159,0.335,0.535,0.487,1.129,0.456l0.817-0.043c0.663-0.038,1.201,0.044,1.612,0.247c0.411,0.203,0.728,0.54,0.951,1.011
c0.298,0.631,0.335,1.252,0.109,1.863c-0.228,0.615-0.655,1.071-1.283,1.368c-0.595,0.282-1.17,0.337-1.725,0.167
c-0.549-0.173-1.023-0.557-1.42-1.152l0.939-0.727c0.238,0.381,0.452,0.62,0.643,0.718c0.354,0.195,0.734,0.196,1.143,0.003
c0.323-0.152,0.54-0.387,0.651-0.704c0.111-0.317,0.088-0.641-0.069-0.972c-0.063-0.133-0.14-0.247-0.229-0.34
c-0.089-0.094-0.196-0.168-0.318-0.224c-0.122-0.056-0.265-0.096-0.428-0.118c-0.163-0.023-0.347-0.03-0.555-0.023l-0.791,0.038
c-1.126,0.048-1.87-0.31-2.231-1.074c-0.243-0.515-0.25-1.039-0.02-1.571c0.229-0.536,0.636-0.942,1.222-1.22
C223.585,147.399,224.384,147.49,225.191,148.047z" />
<path id="XMLID_46_" fill="#FFFFFF" d="M228.889,149.372c-0.094-0.157-0.119-0.328-0.073-0.512
c0.046-0.184,0.149-0.324,0.308-0.421c0.16-0.096,0.333-0.121,0.517-0.076c0.184,0.046,0.324,0.148,0.421,0.308
c0.098,0.163,0.124,0.336,0.079,0.52c-0.045,0.18-0.149,0.319-0.311,0.417c-0.165,0.1-0.338,0.127-0.518,0.082
C229.131,149.647,228.991,149.54,228.889,149.372z" />
</g>
</g>
</g>
</svg>