<?xml version="1.0" encoding="utf-8"?>
<!-- Generator: Adobe Illustrator 19.0.1, SVG Export Plug-In . SVG Version: 6.00 Build 0)  -->
<svg version="1.1" id="Layer_1" xmlns="http://www.w3.org/2000/svg" xmlns:xlink="http://www.w3.org/1999/xlink" x="0px" y="0px"
	 viewBox="0 0 262.487 256.487" enable-background="new 0 0 262.487 256.487" xml:space="preserve">
<g id="XMLID_1501_">
	<polygon id="XMLID_1336_" fill="#FFFFFF" points="59.302,91.875 60.988,84.953 63.47,88.445 69.251,88.45 71.378,87.254 
		69.147,77.934 72.237,71.515 73.931,75.451 79.591,76.654 81.919,75.926 81.675,66.342 86.034,60.705 86.873,64.907 92.156,67.26 
		94.586,67.034 96.34,57.614 101.774,53.003 101.72,57.29 106.397,60.687 108.827,60.969 112.5,52.115 118.774,48.735 
		117.831,52.925 121.699,57.218 124.011,58.004 129.451,50.104 136.286,48.103 134.491,52 137.386,57.005 139.488,58.254 
		146.443,51.658 153.545,51.128 150.987,54.562 152.77,60.064 154.566,61.721 162.745,56.715 169.802,57.669 166.585,60.496 
		167.186,66.251 168.602,68.242 177.638,65.046 184.346,67.453 180.612,69.545 180.005,75.295 180.969,77.541 190.475,76.293 
		196.534,80.04 192.444,81.319 190.657,86.81 191.137,89.206 200.697,89.963 205.841,94.887 201.573,95.285 198.682,100.294 
		198.681,100.402 200.646,100.402 202.64,96.948 209.832,96.277 201.458,88.262 192.597,87.56 192.469,86.915 193.833,82.723 
		200.723,80.569 190.867,74.471 182.057,75.627 181.799,75.025 182.262,70.633 188.563,67.101 177.643,63.183 169.265,66.147 
		168.883,65.611 168.425,61.214 173.853,56.447 162.362,54.892 154.782,59.531 154.298,59.086 152.937,54.883 157.25,49.094 
		145.689,49.953 139.243,56.068 138.676,55.73 136.465,51.907 139.493,45.335 128.36,48.596 123.319,55.916 122.697,55.704 
		119.743,52.426 121.33,45.364 111.118,50.865 107.714,59.072 107.057,58.996 103.486,56.404 103.579,49.17 94.729,56.68 
		93.103,65.411 92.452,65.47 88.416,63.673 87.002,56.585 79.906,65.761 80.131,74.644 79.505,74.842 75.185,73.923 72.326,67.282 
		67.295,77.737 69.363,86.375 68.792,86.696 64.377,86.691 60.193,80.805 57.449,92.066 61.268,100.088 60.913,100.402 
		63.36,100.402 	"/>
	<polygon id="XMLID_1490_" fill="#FFFFFF" points="201.793,171.597 200.105,178.517 197.628,175.023 191.846,175.023 
		189.717,176.217 191.952,185.539 188.859,191.957 187.167,188.022 181.509,186.819 179.175,187.546 179.423,197.131 
		175.064,202.767 174.227,198.561 168.943,196.208 166.509,196.443 164.757,205.863 159.324,210.465 159.377,206.187 
		154.701,202.786 152.274,202.504 148.6,211.354 142.327,214.728 143.271,210.549 139.399,206.249 137.085,205.473 131.653,213.365 
		124.814,215.365 126.605,211.472 123.711,206.467 121.617,205.216 114.653,211.814 107.552,212.349 110.111,208.911 
		108.324,203.412 106.529,201.756 98.353,206.757 91.293,205.807 94.512,202.976 93.908,197.226 92.496,195.23 83.459,198.422 
		76.753,196.025 80.49,193.924 81.093,188.177 80.126,185.936 70.624,187.176 64.563,183.432 68.653,182.158 70.44,176.658 
		69.964,174.263 60.405,173.506 55.253,168.585 59.523,168.187 62.415,163.183 62.416,163.066 60.455,163.066 58.457,166.524 
		51.256,167.195 59.644,175.205 68.501,175.907 68.629,176.55 67.264,180.751 60.364,182.901 70.232,188.997 79.04,187.847 
		79.299,188.452 78.839,192.839 72.536,196.381 83.455,200.282 91.829,197.328 92.211,197.866 92.672,202.258 87.24,207.033 
		98.737,208.58 106.314,203.946 106.797,204.391 108.161,208.59 103.846,214.388 115.408,213.515 121.858,207.404 122.419,207.74 
		124.631,211.565 121.609,218.13 132.744,214.874 137.781,207.559 138.404,207.766 141.359,211.049 139.765,218.099 
		149.982,212.603 153.387,204.4 154.041,204.477 157.611,207.073 157.52,214.293 166.368,206.797 167.993,198.064 168.651,197.999 
		172.683,199.794 174.094,206.89 181.194,197.709 180.963,188.826 181.593,188.63 185.913,189.549 188.769,196.186 193.803,185.736 
		191.733,177.097 192.304,176.776 196.721,176.776 200.898,182.67 203.647,171.406 199.826,163.384 200.189,163.066 
		197.731,163.066 	"/>
	<polygon id="XMLID_1491_" fill="#272626" points="45.621,149.926 52.799,150.773 55.757,147.491 55.9,146.853 48.094,142.604 
		43.689,131.871 50.541,134.196 54.111,131.602 54.386,131.004 47.633,125.225 45.567,113.83 51.777,117.5 55.812,115.71 
		56.204,115.182 50.8,108.131 50.973,102.355 13.572,102.355 13.572,161.113 57.539,161.113 52.155,159.514 	"/>
	<polygon id="XMLID_1496_" fill="#272626" points="215.475,113.537 208.298,112.699 205.344,115.975 205.2,116.617 213.005,120.864 
		217.398,131.592 210.557,129.278 206.985,131.871 206.711,132.471 213.464,138.245 215.538,149.647 209.322,145.967 
		205.286,147.762 204.895,148.288 210.299,155.341 210.126,161.113 247.522,161.113 247.522,102.355 203.545,102.355 
		208.944,103.959 	"/>
	<polygon id="XMLID_1497_" fill="#272626" points="207.845,105.463 211.858,111.346 207.601,110.849 203.734,115.141 
		203.196,117.524 211.617,122.107 214.317,128.698 210.26,127.327 205.583,130.721 204.562,132.941 211.848,139.175 213.123,146.18 
		209.436,143.997 204.152,146.346 202.697,148.303 208.525,155.912 208.37,161.113 210.126,161.113 210.299,155.341 
		204.895,148.288 205.286,147.762 209.322,145.967 215.538,149.647 213.464,138.245 206.711,132.471 206.985,131.871 
		210.557,129.278 217.398,131.592 213.005,120.864 205.2,116.617 205.344,115.975 208.298,112.699 215.475,113.537 208.944,103.959 
		203.545,102.355 198.66,102.355 198.656,102.733 	"/>
	<polygon id="XMLID_1498_" fill="#272626" points="53.253,158.01 49.24,152.121 53.495,152.623 57.37,148.323 57.902,145.944 
		49.48,141.36 46.777,134.773 50.837,136.15 55.516,132.752 56.534,130.53 49.248,124.297 47.979,117.294 51.663,119.471 
		56.946,117.127 58.402,115.165 52.573,107.561 52.729,102.355 50.973,102.355 50.8,108.131 56.204,115.182 55.812,115.71 
		51.777,117.5 45.567,113.83 47.633,125.225 54.386,131.004 54.111,131.602 50.541,134.196 43.689,131.871 48.094,142.604 
		55.9,146.853 55.757,147.491 52.799,150.773 45.621,149.926 52.155,159.514 57.539,161.113 62.438,161.113 62.442,160.74 	"/>
	<polygon id="XMLID_1499_" fill="#272626" points="60.589,102.355 54.867,102.355 55.936,103.34 	"/>
	<polygon id="XMLID_1500_" fill="#272626" points="200.531,161.113 206.233,161.113 205.164,160.128 	"/>
	<polygon id="XMLID_1503_" fill="#FFFFFF" points="56.728,101.378 60.778,100.521 60.913,100.402 55.337,100.402 56.396,101.378 	
		"/>
	<polygon id="XMLID_1504_" fill="#FFFFFF" points="204.371,162.09 200.32,162.951 200.189,163.066 205.764,163.066 204.704,162.09 	
		"/>
	<polygon id="XMLID_1505_" fill="#FFFFFF" points="52.759,101.378 52.787,100.438 53.807,101.378 56.396,101.378 55.337,100.402 
		51.032,100.402 51.003,101.378 	"/>
	<polygon id="XMLID_1506_" fill="#FFFFFF" points="208.341,162.09 208.313,163.03 207.292,162.09 204.704,162.09 205.764,163.066 
		210.067,163.066 210.096,162.09 	"/>
	<polygon id="XMLID_1507_" fill="#FFFFFF" points="204.371,162.09 198.642,162.09 197.671,162.94 197.731,163.066 200.189,163.066 
		200.32,162.951 	"/>
	<polygon id="XMLID_1508_" fill="#FFFFFF" points="62.427,162.09 60.672,162.09 60.664,162.703 60.455,163.066 62.416,163.066 	"/>
	<polygon id="XMLID_1509_" fill="#FFFFFF" points="56.728,101.378 62.46,101.378 63.422,100.531 63.36,100.402 60.913,100.402 
		60.778,100.521 	"/>
	<polygon id="XMLID_1510_" fill="#FFFFFF" points="198.67,101.378 200.426,101.378 200.432,100.771 200.646,100.402 
		198.681,100.402 	"/>
	<polygon id="XMLID_1511_" fill="#FFFFFF" points="56.728,101.378 56.396,101.378 56.459,101.435 	"/>
	<polygon id="XMLID_1513_" fill="#FFFFFF" points="204.371,162.09 204.704,162.09 204.642,162.032 	"/>
	<polygon id="XMLID_1515_" fill="#FFFFFF" points="208.37,161.113 208.341,162.09 210.096,162.09 210.126,161.113 	"/>
	<polygon id="XMLID_1516_" fill="#FFFFFF" points="57.539,161.113 60.673,162.044 60.672,162.09 62.427,162.09 62.438,161.113 	"/>
	<polygon id="XMLID_1517_" fill="#FFFFFF" points="200.531,161.113 199.509,161.33 198.642,162.09 204.371,162.09 204.642,162.032 
		204.704,162.09 207.292,162.09 206.233,161.113 	"/>
	<polygon id="XMLID_1518_" fill="#FFFFFF" points="52.729,102.355 52.759,101.378 51.003,101.378 50.973,102.355 	"/>
	<polygon id="XMLID_1519_" fill="#FFFFFF" points="60.589,102.355 61.591,102.143 62.46,101.378 56.728,101.378 56.459,101.435 
		56.396,101.378 53.807,101.378 54.867,102.355 	"/>
	<polygon id="XMLID_1520_" fill="#FFFFFF" points="198.66,102.355 203.545,102.355 200.425,101.428 200.426,101.378 198.67,101.378 
			"/>
	<polygon id="XMLID_1521_" fill="#272626" points="198.682,100.294 201.573,95.285 205.841,94.887 200.697,89.963 191.137,89.206 
		190.657,86.81 192.444,81.319 196.534,80.04 190.475,76.293 180.969,77.541 180.005,75.295 180.612,69.545 184.346,67.453 
		177.638,65.046 168.602,68.242 167.186,66.251 166.585,60.496 169.802,57.669 162.745,56.715 154.566,61.721 152.77,60.064 
		150.987,54.562 153.545,51.128 146.443,51.658 139.488,58.254 137.386,57.005 134.491,52 136.286,48.103 129.451,50.104 
		124.011,58.004 121.699,57.218 117.831,52.925 118.774,48.735 112.5,52.115 108.827,60.969 106.397,60.687 101.72,57.29 
		101.774,53.003 96.34,57.614 94.586,67.034 92.156,67.26 86.873,64.907 86.034,60.705 81.675,66.342 81.919,75.926 79.591,76.654 
		73.931,75.451 72.237,71.515 69.147,77.934 71.378,87.254 69.251,88.45 63.47,88.445 60.988,84.953 59.302,91.875 63.36,100.402 
		198.681,100.402 	"/>
	<polygon id="XMLID_1522_" fill="#272626" points="62.415,163.183 59.523,168.187 55.253,168.585 60.405,173.506 69.964,174.263 
		70.44,176.658 68.653,182.158 64.563,183.432 70.624,187.176 80.126,185.936 81.093,188.177 80.49,193.924 76.753,196.025 
		83.459,198.422 92.496,195.23 93.908,197.226 94.512,202.976 91.293,205.807 98.353,206.757 106.529,201.756 108.324,203.412 
		110.111,208.911 107.552,212.349 114.653,211.814 121.617,205.216 123.711,206.467 126.605,211.472 124.814,215.365 
		131.653,213.365 137.085,205.473 139.399,206.249 143.271,210.549 142.327,214.728 148.6,211.354 152.274,202.504 154.701,202.786 
		159.377,206.187 159.324,210.465 164.757,205.863 166.509,196.443 168.943,196.208 174.227,198.561 175.064,202.767 
		179.423,197.131 179.175,187.546 181.509,186.819 187.167,188.022 188.859,191.957 191.952,185.539 189.717,176.217 
		191.846,175.023 197.628,175.023 200.105,178.517 201.793,171.597 197.731,163.066 62.416,163.066 	"/>
	<polygon id="XMLID_1523_" fill="#272626" points="55.936,103.34 54.867,102.355 52.729,102.355 52.573,107.561 58.402,115.165 
		56.946,117.127 51.663,119.471 47.979,117.294 49.248,124.297 56.534,130.53 55.516,132.752 50.837,136.15 46.777,134.773 
		49.48,141.36 57.902,145.944 57.37,148.323 53.495,152.623 49.24,152.121 53.253,158.01 62.442,160.74 62.438,161.113 
		200.531,161.113 205.164,160.128 206.233,161.113 208.37,161.113 208.525,155.912 202.697,148.303 204.152,146.346 
		209.436,143.997 213.123,146.18 211.848,139.175 204.562,132.941 205.583,130.721 210.26,127.327 214.317,128.698 211.617,122.107 
		203.196,117.524 203.734,115.141 207.601,110.849 211.858,111.346 207.845,105.463 198.656,102.733 198.66,102.355 60.589,102.355 
			"/>
	<polygon id="XMLID_1524_" fill="#FFFFFF" points="52.787,100.438 52.759,101.378 53.807,101.378 	"/>
	<polygon id="XMLID_1525_" fill="#FFFFFF" points="208.313,163.03 208.341,162.09 207.292,162.09 	"/>
	<polygon id="XMLID_1526_" fill="#272626" points="62.416,163.066 197.731,163.066 197.671,162.94 198.642,162.09 62.427,162.09 	
		"/>
	<polygon id="XMLID_1527_" fill="#272626" points="198.681,100.402 63.36,100.402 63.422,100.531 62.46,101.378 198.67,101.378 	"/>
	<polygon id="XMLID_1528_" fill="#FFFFFF" points="206.233,161.113 207.292,162.09 208.341,162.09 208.37,161.113 	"/>
	<polygon id="XMLID_1529_" fill="#272626" points="200.531,161.113 62.438,161.113 62.427,162.09 198.642,162.09 199.509,161.33 	
		"/>
	<polygon id="XMLID_1531_" fill="#FFFFFF" points="54.867,102.355 53.807,101.378 52.759,101.378 52.729,102.355 	"/>
	<g id="XMLID_1339_">
		<path id="XMLID_1340_" fill="#FFFFFF" d="M130.547,198.999c-37.088,0-67.261-30.173-67.261-67.261s30.173-67.261,67.261-67.261
			s67.261,30.173,67.261,67.261S167.635,198.999,130.547,198.999z M130.547,66.43c-36.011,0-65.308,29.297-65.308,65.308
			s29.297,65.308,65.308,65.308s65.308-29.297,65.308-65.308S166.558,66.43,130.547,66.43z"/>
	</g>
	<g id="XMLID_1343_">
		<path id="XMLID_1344_" fill="#FFFFFF" d="M88.782,86.978l1.071,1.066c-0.959,0.087-1.717,0.411-2.274,0.971
			c-0.614,0.617-0.909,1.357-0.887,2.22c0.018,0.864,0.345,1.612,0.982,2.247c0.629,0.627,1.372,0.943,2.228,0.949
			c0.855,0.006,1.59-0.3,2.204-0.916c0.317-0.319,0.535-0.641,0.653-0.967c0.072-0.176,0.131-0.374,0.175-0.596
			c0.045-0.221,0.079-0.467,0.101-0.739l1.094,1.089c-0.222,0.811-0.617,1.501-1.184,2.071c-0.853,0.858-1.881,1.291-3.084,1.302
			c-1.204,0.003-2.233-0.42-3.085-1.269c-0.764-0.761-1.194-1.692-1.29-2.793c-0.114-1.352,0.32-2.521,1.303-3.508
			C87.327,87.567,87.991,87.191,88.782,86.978z"/>
		<path id="XMLID_1346_" fill="#FFFFFF" d="M92.897,88.256c-0.694-0.968-0.936-2.055-0.724-3.259c0.209-1.202,0.81-2.159,1.802-2.87
			c0.98-0.703,2.073-0.955,3.277-0.756c1.206,0.197,2.162,0.786,2.867,1.77c0.709,0.989,0.957,2.082,0.744,3.278
			c-0.214,1.201-0.823,2.162-1.827,2.882c-0.888,0.637-1.906,0.901-3.054,0.793C94.716,89.97,93.688,89.358,92.897,88.256z
			 M93.953,87.516c0.545,0.76,1.248,1.202,2.11,1.325c0.859,0.126,1.622-0.05,2.287-0.527c0.722-0.518,1.152-1.203,1.291-2.058
			c0.134-0.86-0.058-1.653-0.577-2.377c-0.525-0.733-1.211-1.172-2.056-1.316c-0.845-0.149-1.627,0.033-2.346,0.549
			c-0.716,0.513-1.142,1.196-1.277,2.048C93.244,86.007,93.434,86.792,93.953,87.516z"/>
		<path id="XMLID_1349_" fill="#FFFFFF" d="M104.178,85.707l-3.838-8.187l8.332,3.228l-2.498-5.327l1.157-0.542l3.812,8.132
			l-8.325-3.213l2.516,5.367L104.178,85.707z"/>
		<path id="XMLID_1351_" fill="#FFFFFF" d="M115.63,73.585l-0.822,0.881c-0.281-0.268-0.52-0.427-0.717-0.475
			c-0.208-0.061-0.451-0.051-0.728,0.031c-0.34,0.1-0.594,0.28-0.762,0.539c-0.169,0.255-0.211,0.527-0.126,0.815
			c0.116,0.397,0.504,0.629,1.165,0.699l0.908,0.094c0.738,0.073,1.316,0.257,1.734,0.552c0.418,0.295,0.709,0.721,0.873,1.279
			c0.219,0.748,0.152,1.439-0.203,2.073c-0.357,0.639-0.907,1.067-1.651,1.286c-0.705,0.207-1.349,0.168-1.932-0.116
			c-0.575-0.286-1.03-0.791-1.365-1.516l1.161-0.638c0.196,0.461,0.391,0.761,0.586,0.903c0.355,0.277,0.775,0.344,1.259,0.202
			c0.382-0.112,0.662-0.334,0.84-0.663c0.177-0.33,0.208-0.691,0.093-1.084c-0.046-0.158-0.111-0.296-0.193-0.414
			c-0.082-0.118-0.186-0.219-0.312-0.303c-0.125-0.083-0.276-0.151-0.452-0.204c-0.175-0.053-0.378-0.093-0.607-0.121l-0.88-0.096
			c-1.25-0.143-2.007-0.667-2.273-1.571c-0.179-0.61-0.096-1.188,0.25-1.735c0.345-0.55,0.865-0.928,1.559-1.132
			C113.972,72.591,114.837,72.831,115.63,73.585z"/>
		<path id="XMLID_1353_" fill="#FFFFFF" d="M120.917,72.506l1.204,7.165l-1.26,0.212l-1.204-7.165l-1.92,0.323l-0.199-1.184
			L122.632,71l0.199,1.184L120.917,72.506z"/>
		<path id="XMLID_1355_" fill="#FFFFFF" d="M128.166,75.463l2.795,3.475l-1.561,0.077l-2.585-3.343l-0.23,0.011l0.17,3.461
			l-1.276,0.063l-0.415-8.456l1.495-0.073c1.117-0.055,1.934,0.116,2.452,0.511c0.57,0.441,0.874,1.044,0.912,1.811
			c0.03,0.599-0.117,1.122-0.439,1.57C129.162,75.017,128.722,75.314,128.166,75.463z M126.53,74.571l0.405-0.02
			c1.209-0.059,1.79-0.551,1.745-1.475c-0.042-0.865-0.651-1.269-1.827-1.212l-0.454,0.022L126.53,74.571z"/>
		<path id="XMLID_1358_" fill="#FFFFFF" d="M134.332,70.644l-0.453,5.075c-0.064,0.724,0.007,1.264,0.214,1.62
			c0.31,0.515,0.785,0.802,1.426,0.859c0.644,0.058,1.165-0.14,1.561-0.592c0.266-0.303,0.431-0.822,0.497-1.557l0.452-5.076
			l1.273,0.113l-0.484,5.429c-0.08,0.889-0.421,1.596-1.026,2.122c-0.68,0.585-1.473,0.838-2.38,0.756
			c-0.906-0.081-1.641-0.469-2.203-1.165c-0.502-0.625-0.713-1.381-0.634-2.27l0.484-5.429L134.332,70.644z"/>
		<path id="XMLID_1360_" fill="#FFFFFF" d="M148.73,73.617l-0.362,1.467c-0.569-0.776-1.237-1.259-2.004-1.448
			c-0.845-0.208-1.631-0.08-2.359,0.384c-0.731,0.46-1.204,1.126-1.419,1.999c-0.213,0.862-0.101,1.662,0.335,2.398
			c0.436,0.736,1.077,1.208,1.921,1.417c0.437,0.108,0.825,0.128,1.165,0.061c0.188-0.029,0.388-0.081,0.601-0.157
			c0.212-0.076,0.441-0.174,0.685-0.294l-0.37,1.499c-0.809,0.228-1.604,0.246-2.385,0.053c-1.175-0.29-2.076-0.947-2.705-1.971
			c-0.623-1.031-0.791-2.13-0.503-3.298c0.258-1.047,0.834-1.895,1.728-2.544c1.099-0.794,2.325-1.025,3.678-0.692
			C147.476,72.672,148.14,73.048,148.73,73.617z"/>
		<path id="XMLID_1362_" fill="#FFFFFF" d="M153.631,76.237l-2.657,6.762l-1.189-0.467l2.657-6.762l-1.812-0.712l0.44-1.118
			l4.807,1.889l-0.439,1.118L153.631,76.237z"/>
		<path id="XMLID_1364_" fill="#FFFFFF" d="M159.032,77.385l-3.773,7.579l-1.143-0.57l3.773-7.579L159.032,77.385z"/>
		<path id="XMLID_1366_" fill="#FFFFFF" d="M159.423,82.173c0.664-0.99,1.597-1.596,2.799-1.82c1.199-0.226,2.305,0.001,3.32,0.681
			c1.002,0.672,1.621,1.606,1.857,2.803c0.239,1.199,0.021,2.301-0.652,3.306c-0.678,1.011-1.614,1.626-2.809,1.846
			c-1.2,0.221-2.313-0.013-3.34-0.701c-0.908-0.609-1.512-1.47-1.813-2.583C158.455,84.477,158.668,83.299,159.423,82.173z
			 M160.486,82.902c-0.521,0.776-0.688,1.59-0.502,2.441c0.184,0.849,0.615,1.501,1.295,1.957c0.738,0.495,1.531,0.657,2.38,0.488
			c0.853-0.176,1.527-0.633,2.024-1.374c0.503-0.749,0.673-1.545,0.512-2.388c-0.156-0.843-0.601-1.512-1.336-2.005
			c-0.732-0.491-1.521-0.65-2.366-0.478C161.651,81.709,160.982,82.162,160.486,82.902z"/>
		<path id="XMLID_1369_" fill="#FFFFFF" d="M165.771,91.85l6.317-6.47l-0.095,8.935l4.111-4.21l0.914,0.893l-6.275,6.426
			l0.083-8.923l-4.141,4.241L165.771,91.85z"/>
	</g>
	<path id="XMLID_1371_" fill="#FFFFFF" stroke="#FFFFFF" stroke-width="0.5" stroke-miterlimit="10" d="M97.531,178.327
		c0.116-0.169,0.278-0.273,0.486-0.312c0.208-0.039,0.399,0,0.571,0.118c0.172,0.118,0.278,0.281,0.317,0.489
		c0.039,0.208,0,0.398-0.118,0.57c-0.12,0.175-0.284,0.282-0.492,0.321c-0.203,0.038-0.392-0.003-0.567-0.122
		c-0.178-0.122-0.286-0.284-0.324-0.488C97.365,178.7,97.407,178.508,97.531,178.327z"/>
	<path id="XMLID_1373_" fill="#FFFFFF" d="M107.049,180.742l-1.203,0.053c-0.013-0.388-0.072-0.668-0.178-0.841
		c-0.106-0.189-0.287-0.352-0.541-0.488c-0.313-0.167-0.62-0.217-0.921-0.15c-0.299,0.064-0.52,0.228-0.661,0.493
		c-0.195,0.365-0.081,0.803,0.341,1.315l0.582,0.703c0.475,0.569,0.759,1.105,0.85,1.609c0.092,0.503,0,1.011-0.274,1.524
		c-0.367,0.687-0.9,1.133-1.597,1.336c-0.703,0.205-1.396,0.125-2.079-0.24c-0.648-0.346-1.08-0.825-1.296-1.436
		c-0.21-0.607-0.181-1.287,0.088-2.038l1.275,0.359c-0.183,0.466-0.254,0.817-0.215,1.054c0.06,0.447,0.312,0.789,0.757,1.026
		c0.351,0.188,0.706,0.226,1.064,0.115c0.358-0.111,0.633-0.347,0.826-0.708c0.077-0.145,0.128-0.289,0.153-0.431
		c0.024-0.142,0.021-0.287-0.01-0.434c-0.031-0.147-0.091-0.301-0.179-0.462c-0.088-0.161-0.204-0.332-0.348-0.512l-0.561-0.685
		c-0.791-0.978-0.965-1.882-0.52-2.714c0.299-0.561,0.764-0.915,1.395-1.063c0.632-0.151,1.267-0.056,1.905,0.285
		C106.562,178.871,107.011,179.648,107.049,180.742z"/>
	<path id="XMLID_1375_" fill="#FFFFFF" d="M114.308,183.522l-3.191-1.156l-0.693,1.913l3.098,1.122l-0.409,1.129l-3.099-1.122
		l-0.964,2.66l3.191,1.156l-0.409,1.129l-4.393-1.591l2.883-7.96l4.393,1.591L114.308,183.522z"/>
	<path id="XMLID_1377_" fill="#FFFFFF" d="M119.321,188.495l1.846,4.06l-1.531-0.313l-1.676-3.879l-0.226-0.046l-0.693,3.395
		l-1.252-0.256l1.694-8.295l1.467,0.299c1.096,0.224,1.846,0.591,2.249,1.103c0.443,0.568,0.588,1.228,0.435,1.98
		c-0.12,0.587-0.391,1.058-0.814,1.412C120.396,188.31,119.897,188.489,119.321,188.495z M117.958,187.226l0.398,0.081
		c1.185,0.242,1.871-0.09,2.056-0.996c0.173-0.849-0.317-1.391-1.47-1.627l-0.446-0.091L117.958,187.226z"/>
	<path id="XMLID_1380_" fill="#FFFFFF" d="M125.402,184.522l2.037,5.98l2.673-5.737l1.397,0.072l-4.263,8.895l-3.239-9.281
		L125.402,184.522z"/>
	<path id="XMLID_1382_" fill="#FFFFFF" d="M134.866,184.547l0.576,8.446l-1.275,0.087l-0.576-8.447L134.866,184.547z"/>
	<path id="XMLID_1384_" fill="#FFFFFF" d="M144.182,183.534l0.289,1.483c-0.843-0.465-1.652-0.622-2.427-0.471
		c-0.854,0.166-1.513,0.613-1.979,1.341c-0.47,0.725-0.618,1.528-0.446,2.411c0.17,0.872,0.607,1.55,1.313,2.035
		c0.705,0.485,1.484,0.644,2.338,0.477c0.442-0.086,0.802-0.231,1.083-0.435c0.158-0.105,0.318-0.237,0.479-0.395
		c0.161-0.158,0.327-0.343,0.498-0.555l0.295,1.515c-0.638,0.547-1.352,0.898-2.141,1.051c-1.188,0.231-2.282,0.015-3.283-0.651
		c-0.999-0.673-1.614-1.6-1.843-2.78c-0.206-1.059-0.041-2.07,0.498-3.036c0.663-1.183,1.678-1.908,3.045-2.174
		C142.647,183.205,143.407,183.266,144.182,183.534z"/>
	<path id="XMLID_1386_" fill="#FFFFFF" d="M151.68,181.739l-3.187,1.167l0.699,1.91l3.094-1.133l0.413,1.127l-3.094,1.133
		l0.973,2.657l3.187-1.167l0.412,1.128l-4.387,1.606l-2.911-7.95l4.387-1.606L151.68,181.739z"/>
	<path id="XMLID_1388_" fill="#FFFFFF" d="M158.468,178.38l-0.625,1.03c-0.329-0.206-0.596-0.312-0.798-0.32
		c-0.216-0.017-0.452,0.042-0.707,0.178c-0.313,0.167-0.525,0.394-0.637,0.682c-0.113,0.284-0.1,0.559,0.041,0.824
		c0.195,0.365,0.622,0.514,1.283,0.447l0.907-0.092c0.738-0.078,1.341-0.015,1.809,0.189c0.469,0.204,0.841,0.562,1.115,1.075
		c0.367,0.688,0.441,1.378,0.222,2.071c-0.22,0.698-0.672,1.229-1.356,1.594c-0.648,0.346-1.287,0.439-1.915,0.278
		c-0.622-0.163-1.17-0.566-1.645-1.207l1.008-0.861c0.286,0.411,0.537,0.666,0.756,0.765c0.404,0.199,0.829,0.179,1.274-0.058
		c0.351-0.188,0.58-0.461,0.687-0.82c0.107-0.359,0.064-0.719-0.129-1.08c-0.077-0.145-0.168-0.267-0.273-0.367
		c-0.105-0.099-0.227-0.177-0.367-0.233c-0.14-0.056-0.301-0.092-0.483-0.108c-0.183-0.016-0.389-0.015-0.619,0.004l-0.881,0.085
		c-1.253,0.113-2.101-0.246-2.544-1.077c-0.299-0.561-0.335-1.144-0.107-1.75c0.226-0.609,0.658-1.084,1.297-1.425
		C156.643,177.743,157.538,177.802,158.468,178.38z"/>
	<path id="XMLID_1390_" fill="#FFFFFF" stroke="#FFFFFF" stroke-width="0.5" stroke-miterlimit="10" d="M162.303,179.187
		c-0.115-0.169-0.154-0.358-0.114-0.566c0.039-0.208,0.144-0.371,0.317-0.489c0.172-0.118,0.362-0.157,0.57-0.118
		c0.208,0.039,0.371,0.145,0.489,0.317c0.12,0.175,0.16,0.367,0.121,0.575c-0.038,0.203-0.145,0.365-0.32,0.484
		c-0.178,0.122-0.369,0.164-0.572,0.125C162.591,179.478,162.427,179.368,162.303,179.187z"/>
	<g id="XMLID_1422_">
		<g id="XMLID_1553_">
			<rect id="XMLID_1558_" x="12.174" y="101.095" fill="#272626" width="238.139" height="61.287"/>
			<path id="XMLID_1554_" fill="#FFFFFF" d="M251.298,163.367H11.188v-63.258h240.11V163.367z M13.16,161.396h236.167v-59.315H13.16
				V161.396z"/>
		</g>
		<g id="XMLID_1423_">
			<path id="XMLID_1550_" fill="#A84C24" d="M20.424,154.934v-6.032h3.253v-34.328h-3.253v-6.032h29.119l7.124,6.851v32.69
				l-7.124,6.851H20.424z M44.354,148.902l3.408-3.127v-27.999l-3.408-3.202H32.583v34.328H44.354z"/>
			<path id="XMLID_1547_" fill="#A84C24" d="M60.609,154.934v-6.032h3.253v-34.328h-3.253v-6.032h29.119l7.124,6.851v10.723
				l-4.879,4.691l4.879,4.691v13.404h3.253v6.032H87.946v-17.872l-3.408-3.276H72.768v15.116h3.253v6.032H60.609z M84.539,127.829
				l3.408-3.202v-6.851l-3.408-3.202H72.768v13.255H84.539z"/>
			<path id="XMLID_1544_" fill="#A84C24" d="M103.024,154.934v-6.032h2.323l11.926-34.328h-3.485v-6.032h22.845v6.032h-3.795
				l11.849,34.328h2.401v6.032H132.22v-6.032h3.02l-2.865-8.117h-14.792l-2.788,8.117h3.02v6.032H103.024z M130.903,136.541
				l-5.886-17.052l-5.886,17.052H130.903z"/>
			<path id="XMLID_1542_" fill="#A84C24" d="M150.014,154.934v-6.032l23.852-34.328H156.21v3.053h-6.196v-9.085h34.539v6.032
				l-23.852,34.328h17.58v-3.053h6.273v9.085H150.014z"/>
			<path id="XMLID_1540_" fill="#A84C24" d="M187.473,154.934v-6.032h3.253v-34.328h-3.253v-6.032h15.411v6.032h-3.253v34.328h3.253
				v6.032H187.473z"/>
			<path id="XMLID_1424_" fill="#A84C24" d="M206.826,148.083v-32.69l7.124-6.851h20.987l7.125,6.851v7.446h-8.984v-5.064
				l-3.253-3.202h-10.764l-3.253,3.202v27.999l3.253,3.127h10.764l3.253-3.127v-4.766h8.984v7.074l-7.125,6.851H213.95
				L206.826,148.083z"/>
		</g>
	</g>
</g>
</svg>
