<?xml version="1.0" encoding="utf-8"?>
<!-- Generator: Adobe Illustrator 19.0.1, SVG Export Plug-In . SVG Version: 6.00 Build 0)  -->
<svg version="1.1" id="Layer_1" xmlns="http://www.w3.org/2000/svg" xmlns:xlink="http://www.w3.org/1999/xlink" x="0px" y="0px"
	 viewBox="106 -103.5 262.5 256.5" style="enable-background:new 106 -103.5 262.5 256.5;" xml:space="preserve">
<style type="text/css">
	.st0{fill:#FFFFFF;}
</style>
<g>
	<g>
		<path class="st0" d="M348.6,89.2c0.5,3.6-0.6,6.8-3.3,9.4l-31.4,31.2c-1.4,1.6-3.3,2.9-5.5,4c-2.3,1.1-4.5,1.8-6.7,2.1
			c-0.2,0-0.6,0-1.4,0.1c-0.8,0.1-1.8,0.1-3.1,0.1c-3,0-7.8-0.5-14.5-1.5c-6.7-1-14.9-3.5-24.6-7.6c-9.7-4-20.7-10-32.9-18.1
			c-12.3-8-25.3-19-39.2-33.1c-11-10.9-20.1-21.2-27.4-31.2c-7.2-9.9-13.1-19.1-17.5-27.5c-4.4-8.4-7.7-16.1-9.9-22.9
			c-2.2-6.8-3.7-12.7-4.5-17.7c-0.8-5-1.1-8.9-0.9-11.7c0.2-2.8,0.2-4.4,0.2-4.7c0.3-2.2,1-4.4,2.1-6.7c1.1-2.3,2.4-4.1,4-5.5
			l31.4-31.4c2.2-2.2,4.7-3.3,7.6-3.3c2,0,3.9,0.6,5.4,1.8c1.6,1.2,2.9,2.6,4,4.4l25.3,47.9c1.4,2.5,1.8,5.3,1.2,8.3
			c-0.6,3-2,5.5-4,7.6L191.4-5.2c-0.3,0.3-0.6,0.8-0.8,1.5c-0.2,0.7-0.4,1.3-0.4,1.8c0.6,3.3,2,7.1,4.2,11.3
			c1.9,3.8,4.8,8.4,8.7,13.8c3.9,5.4,9.5,11.7,16.8,18.8c7.1,7.2,13.4,12.9,18.9,16.9c5.5,4,10.1,7,13.8,8.9s6.5,3,8.5,3.4l3,0.6
			c0.3,0,0.8-0.1,1.5-0.4c0.7-0.2,1.2-0.5,1.5-0.8l13.5-13.7c2.8-2.5,6.1-3.8,9.9-3.8c2.7,0,4.8,0.5,6.4,1.4h0.2l45.6,26.9
			C346,83.5,348,86.1,348.6,89.2z"/>
	</g>
</g>
</svg>
