<?xml version="1.0" encoding="utf-8"?>
<!-- Generator: Adobe Illustrator 19.0.1, SVG Export Plug-In . SVG Version: 6.00 Build 0)  -->
<svg version="1.1" id="Layer_1" xmlns="http://www.w3.org/2000/svg" xmlns:xlink="http://www.w3.org/1999/xlink" x="0px" y="0px"
	 viewBox="106 -103.5 262.5 256.5" style="enable-background:new 106 -103.5 262.5 256.5;" xml:space="preserve">
<style type="text/css">
	.st0{fill:#272626;}
	.st1{fill:#A74C24;}
</style>
<circle class="st0" cx="237.2" cy="22.4" r="117.3"/>
<g>
	<path class="st1" d="M299.8-10c-0.1-1.1-0.8-2.1-1.9-2.5c-1.1-0.4-2.2-0.1-3,0.7L278.6,4.5l-18-5.7l-5.7-18l16.3-16.3
		c0.8-0.8,1.1-2,0.7-3c-0.4-1.1-1.3-1.8-2.5-1.9c-9.9-0.9-19.5,2.7-26.5,9.7c-9.6,9.6-12.1,23.6-7.6,35.5c-0.5,0.4-1,0.9-1.5,1.3
		l-54.3,51.2c0,0,0,0-0.1,0.1c-6.4,6.4-6.4,16.8,0,23.2c6.4,6.4,16.7,6.3,23.1-0.1c0,0,0.1-0.1,0.1-0.1l50.8-54.7
		c0.5-0.5,0.9-1,1.3-1.5c11.9,4.5,25.9,2,35.5-7.6C297.1,9.6,300.6-0.1,299.8-10z M194.3,73.6c-2.4,2.4-6.2,2.3-8.5,0
		c-2.4-2.3-2.4-6.2,0-8.5c2.4-2.3,6.2-2.3,8.5,0C196.6,67.4,196.6,71.2,194.3,73.6z"/>
</g>
</svg>
